<svg width="720" height="420" viewBox="0 0 720 420" fill="none" xmlns="http://www.w3.org/2000/svg">
  <defs>
    <linearGradient id="g" x1="100" y1="40" x2="610" y2="360" gradientUnits="userSpaceOnUse">
      <stop stop-color="#F5B942"/>
      <stop offset="1" stop-color="#E08A1E"/>
    </linearGradient>
    <filter id="glow" x="-80%" y="-80%" width="260%" height="260%">
      <feGaussianBlur stdDeviation="12" result="b"/>
      <feMerge><feMergeNode in="b"/><feMergeNode in="SourceGraphic"/></feMerge>
    </filter>
  </defs>
  <circle cx="360" cy="210" r="154" fill="#F5B942" fill-opacity=".045"/>
  <circle cx="360" cy="210" r="118" stroke="#F5B942" stroke-opacity=".13" stroke-dasharray="5 9"/>
  <path d="M188 150C235 106 274 88 318 82" stroke="#F5B942" stroke-opacity=".35" stroke-width="2"/>
  <path d="M402 82C456 90 503 112 540 151" stroke="#F5B942" stroke-opacity=".35" stroke-width="2"/>
  <path d="M188 270C234 315 276 335 318 339" stroke="#F5B942" stroke-opacity=".25" stroke-width="2"/>
  <path d="M402 339C457 331 502 307 540 269" stroke="#F5B942" stroke-opacity=".25" stroke-width="2"/>
  <g filter="url(#glow)">
    <circle cx="172" cy="138" r="8" fill="#F5B942"/>
    <circle cx="548" cy="138" r="8" fill="#F5B942"/>
    <circle cx="172" cy="282" r="8" fill="#F5B942"/>
    <circle cx="548" cy="282" r="8" fill="#F5B942"/>
  </g>
  <g opacity=".55">
    <rect x="145" y="105" width="54" height="66" rx="12" fill="#11161A" stroke="#F5B942" stroke-opacity=".35"/>
    <rect x="521" y="105" width="54" height="66" rx="12" fill="#11161A" stroke="#F5B942" stroke-opacity=".35"/>
    <rect x="145" y="249" width="54" height="66" rx="12" fill="#11161A" stroke="#F5B942" stroke-opacity=".25"/>
    <rect x="521" y="249" width="54" height="66" rx="12" fill="#11161A" stroke="#F5B942" stroke-opacity=".25"/>
  </g>
  <g>
    <path d="M360 126L438 168V252L360 294L282 252V168L360 126Z" fill="url(#g)" fill-opacity=".96"/>
    <path d="M282 168L360 210L438 168" stroke="#FFF3D2" stroke-opacity=".9" stroke-width="3" stroke-linejoin="round"/>
    <path d="M360 210V294" stroke="#FFF3D2" stroke-opacity=".9" stroke-width="3"/>
    <path d="M321 147L399 189" stroke="#7A4A13" stroke-opacity=".55" stroke-width="3"/>
    <path d="M321 147V184L360 205L399 184V189" stroke="#7A4A13" stroke-opacity=".55" stroke-width="3"/>
  </g>
  <g stroke="#F5B942" stroke-width="2" stroke-linecap="round">
    <path d="M208 138H252"/>
    <path d="M468 138H512"/>
    <path d="M208 282H252"/>
    <path d="M468 282H512"/>
  </g>
  <g fill="#D9DEE3" font-family="Inter, Arial, sans-serif" font-size="10" font-weight="700" letter-spacing="1.5">
    <text x="151" y="127">DEVICE</text>
    <text x="527" y="127">DEVICE</text>
    <text x="151" y="271">DEVICE</text>
    <text x="527" y="271">DEVICE</text>
  </g>
  <g fill="#F5B942" font-family="JetBrains Mono, monospace" font-size="9" font-weight="600">
    <text x="145" y="192">LOCAL</text>
    <text x="521" y="192">LOCAL</text>
    <text x="145" y="336">LOCAL</text>
    <text x="521" y="336">LOCAL</text>
  </g>
</svg>